:SAMPLES-PER-SECOND 30
:FULLY-SPECIFIED
:DEGREES
931
root  9.98815 39.9753 -2.89049 -110.416 -82.405 113.49
RightUpLeg  5.52699 -12.1313 -12.7429
RightLeg  10.3402 -0.818896 2.50044
RightFoot  -17.512 0.129008 4.58961
RightToes  0.00048216 0.542163 -0.142577
Spine  14.0194 0.718748 1.68253
Spine1  4.56613 2.04941 -4.93287
HEad  -8.05546 3.68519 -5.57522
LeftShoulder1  8.84656 -12.918 -47.007
LeftArm  -11.9837 25.0835 -27.3932
LeftForeArm  28.5399 -13.6966 -3.9707
LeftHand  -0.25398 0.0180481 5.50724
RightShoulder  4.89006 8.57794 34.5212
RightArm  2.32411 -9.33403 31.3892
RightForeArm  -5.19501 25.99 5.8463
RightHand  -1.59635 3.42648 -21.106
LeftUpLeg  -16.5131 1.97851 -2.17395
LeftLeg  2.38013 16.0433 -5.28567
LeftFoot  6.7465 0.253882 -1.84346
LeftToes  1.06245e-005 4.65856e-005 -8.18504e-006
932
root  10.4359 40.1247 -3.00226 -105.546 -82.8531 109.266
RightUpLeg  5.17228 -11.735 -12.1694
RightLeg  8.4072 -2.01567 3.11965
RightFoot  -16.1953 0.0734091 4.32851
RightToes  0.00048216 0.542163 -0.142577
Spine  12.7989 0.568329 1.25522
Spine1  4.52531 1.55629 -3.70175
HEad  -6.03885 3.76365 -4.6799
LeftShoulder1  8.80328 -12.862 -46.9354
LeftArm  -11.6016 25.2641 -27.4215
LeftForeArm  29.5076 -13.1593 -4.0961
LeftHand  -0.25398 0.0180481 5.50724
RightShoulder  4.79268 8.34046 34.5099
RightArm  2.0364 -10.5748 31.26
RightForeArm  -5.35192 25.6112 5.76669
RightHand  -1.80187 4.17393 -21.9454
LeftUpLeg  -16.4159 4.01337 -2.90565
LeftLeg  5.09462 14.8127 -3.99325
LeftFoot  4.68052 0.182192 -1.48094
LeftToes  1.06245e-005 4.65856e-005 -8.18504e-006
933
root  10.7845 40.2342 -3.07644 -107.069 -82.7811 111.586
RightUpLeg  4.16617 -11.4554 -11.643
RightLeg  7.37563 -2.17117 3.09396
RightFoot  -15.3968 0.0529079 4.44205
RightToes  0.00048216 0.542163 -0.142577
Spine  11.3809 0.761856 1.25737
Spine1  4.50053 1.74847 -3.63173
HEad  -4.61774 3.65223 -4.17505
LeftShoulder1  8.72429 -12.7735 -46.7628
LeftArm  -11.4362 25.4184 -27.1826
LeftForeArm  30.0417 -13.4176 -4.05827
LeftHand  -0.25398 0.0180481 5.50724
RightShoulder  4.69327 8.1323 34.3813
RightArm  1.49139 -12.4713 31.8481
RightForeArm  -6.44781 24.9888 5.67615
RightHand  -2.08737 5.14379 -23.0772
LeftUpLeg  -15.9587 7.70963 -4.2107
LeftLeg  8.17084 13.2392 -2.47834
LeftFoot  2.58572 0.00104668 -0.133694
LeftToes  1.06245e-005 4.65856e-005 -8.18504e-006
934
root  11.0615 40.3005 -3.10188 -113.41 -82.4105 118.38
RightUpLeg  3.23911 -11.224 -11.4102
RightLeg  6.92215 -1.43174 3.06796
RightFoot  -15.0781 0.0499785 4.66316
RightToes  0.00048216 0.542163 -0.142577
Spine  10.2246 1.03183 1.54581
Spine1  4.90808 2.21904 -4.17876
HEad  -4.21017 3.71981 -4.15792
LeftShoulder1  8.64947 -12.6684 -46.6602
LeftArm  -11.5176 25.6509 -26.944
LeftForeArm  29.4871 -14.7708 -3.84111
LeftHand  -0.25398 0.0180481 5.50724
RightShoulder  4.67499 8.08199 34.3982
RightArm  1.62825 -13.9525 32.5582
RightForeArm  -8.19909 23.9729 5.53778
RightHand  -2.23871 5.68565 -23.5353
LeftUpLeg  -14.3995 10.5692 -5.08305
LeftLeg  10.064 12.0556 -1.56768
LeftFoot  -0.315401 -0.0459767 0.476135
LeftToes  1.06245e-005 4.65856e-005 -8.18504e-006
935
root  11.2704 40.3545 -3.08617 -118.606 -82.1476 123.607
RightUpLeg  2.87589 -11.2794 -11.4145
RightLeg  6.59046 -0.658732 3.32967
RightFoot  -14.6243 0.0352297 4.68449
RightToes  0.00048216 0.542163 -0.142577
Spine  9.38265 1.07989 1.82729
Spine1  5.64258 2.4444 -4.61729
HEad  -4.26656 4.00725 -4.36539
LeftShoulder1  8.61185 -12.5718 -46.738
LeftArm  -11.5825 25.8173 -26.7567
LeftForeArm  28.3041 -16.6232 -3.6142
LeftHand  -0.25398 0.0180481 5.50724
RightShoulder  4.75269 8.16552 34.7698
RightArm  2.56055 -14.5938 32.8921
RightForeArm  -9.14186 22.303 5.44108
RightHand  -2.1276 5.42376 -22.9162
LeftUpLeg  -11.7206 9.25924 -4.85314
LeftLeg  9.68326 13.5217 -1.78811
LeftFoot  -3.29692 -0.0115863 0.452708
LeftToes  1.06245e-005 4.65856e-005 -8.18504e-006
936
root  11.4135 40.4293 -3.06584 -119.249 -82.1229 124.196
RightUpLeg  3.05438 -11.3917 -11.5423
RightLeg  5.8673 -0.560529 3.61103
RightFoot  -13.9241 0.0109626 4.67802
RightToes  0.00048216 0.542163 -0.142577
Spine  8.64551 0.952476 1.4773
Spine1  6.14979 2.27712 -4.47149
HEad  -3.95291 4.27259 -4.4689
LeftShoulder1  8.59502 -12.4828 -46.9097
LeftArm  -11.5423 25.7402 -26.6408
LeftForeArm  27.4284 -18.2077 -3.48997
LeftHand  -0.25398 0.0180481 5.50724
RightShoulder  4.85701 8.25455 35.3395
RightArm  2.55763 -14.8394 32.9749
RightForeArm  -6.86488 19.7971 5.73164
RightHand  -1.81517 4.49906 -21.4085
LeftUpLeg  -8.96935 4.12423 -4.30686
LeftLeg  6.88208 17.9714 -2.90197
LeftFoot  -4.40454 -0.0202656 0.761231
LeftToes  1.06245e-005 4.65856e-005 -8.18504e-006
937
root  11.5043 40.5112 -3.05834 -115.139 -82.1829 120.225
RightUpLeg  3.33879 -11.3922 -11.7484
RightLeg  4.86605 -0.949599 3.67721
RightFoot  -13.3866 -0.00271092 4.93452
RightToes  0.00048216 0.542163 -0.142577
Spine  7.87131 0.80163 0.420095
Spine1  6.1829 1.89576 -3.84852
HEad  -3.06367 4.30626 -4.29762
LeftShoulder1  8.55899 -12.3713 -47.0435
LeftArm  -11.5208 25.2688 -26.533
LeftForeArm  27.1997 -19.4515 -3.42484
LeftHand  -0.25398 0.0180481 5.50724
RightShoulder  4.92088 8.27702 35.7935
RightArm  0.0720509 -15.3309 33.4031
RightForeArm  -1.19537 16.8774 6.24098
RightHand  -1.4835 3.42828 -19.6641
LeftUpLeg  -7.28969 0.550278 -4.52991
LeftLeg  3.30484 20.9819 -3.92338
LeftFoot  -3.37574 -0.0761509 1.38173
LeftToes  1.06245e-005 4.65856e-005 -8.18504e-006
938
root  11.5588 40.5617 -3.03482 -107.831 -82.2896 113.285
RightUpLeg  3.26199 -11.4141 -11.9468
RightLeg  4.29629 -1.62453 3.6336
RightFoot  -13.1471 -0.00492944 5.34426
RightToes  0.00048216 0.542163 -0.142577
Spine  7.03718 0.639564 -0.450019
Spine1  6.03168 1.56441 -3.41414
HEad  -2.02824 3.93959 -3.86646
LeftShoulder1  8.49176 -12.2513 -47.0284
LeftArm  -11.6688 24.3486 -26.3285
LeftForeArm  27.4962 -20.9199 -3.38679
LeftHand  -0.25398 0.0180481 5.50724
RightShoulder  4.93975 8.26462 35.993
RightArm  -3.82671 -16.4367 34.5505
RightForeArm  3.92896 14.6355 6.39027
RightHand  -1.2771 2.63754 -18.6042
LeftUpLeg  -6.88476 0.22067 -5.02022
LeftLeg  1.11033 20.9144 -4.49397
LeftFoot  -2.10804 -0.114969 1.58799
LeftToes  1.06245e-005 4.65856e-005 -8.18504e-006
939
root  11.5751 40.5768 -2.96306 -99.098 -82.4205 104.953
RightUpLeg  3.00641 -11.5712 -12.15
RightLeg  4.25829 -2.6278 3.64494
RightFoot  -13.0188 -0.00661257 5.58237
RightToes  0.00048216 0.542163 -0.142577
Spine  6.26509 0.51608 -0.490417
Spine1  6.01173 1.49903 -3.68111
HEad  -1.22012 3.03303 -3.32082
LeftShoulder1  8.42253 -12.1867 -46.8326
LeftArm  -12.0802 23.1813 -26.0379
LeftForeArm  28.2704 -23.1292 -3.51859
LeftHand  -0.25398 0.0180481 5.50724
RightShoulder  4.94414 8.26592 36.0249
RightArm  -6.54598 -18.1173 36.0998
RightForeArm  4.69355 13.892 6.25864
RightHand  -1.19963 2.15484 -18.5623
LeftUpLeg  -7.14292 0.193497 -5.19573
LeftLeg  0.600469 20.4643 -4.94784
LeftFoot  -1.92922 -0.0910103 1.24276
LeftToes  1.06245e-005 4.65856e-005 -8.18504e-006
940
root  11.5361 40.5501 -2.83833 -91.5996 -82.556 97.5857
RightUpLeg  3.07347 -11.7768 -12.3642
RightLeg  4.44788 -3.50913 3.70154
RightFoot  -13.2088 0.00453553 5.7704
RightToes  0.00048216 0.542163 -0.142577
Spine  5.76295 0.57814 0.0870498
Spine1  6.11211 1.75568 -4.35466
HEad  -0.616842 1.74593 -2.8617
LeftShoulder1  8.37245 -12.1764 -46.5785
LeftArm  -12.8813 22.146 -25.7965
LeftForeArm  29.3919 -25.9817 -4.00565
LeftHand  -0.25398 0.0180481 5.50724
RightShoulder  4.95661 8.28945 36.0463
RightArm  -6.58337 -19.8897 37.3449
RightForeArm  2.27214 14.4584 6.26544
RightHand  -1.15749 1.8212 -18.7128
LeftUpLeg  -7.51212 0.323533 -5.25962
LeftLeg  1.43055 20.0046 -5.02334
LeftFoot  -2.64299 -0.0563455 0.952945
LeftToes  1.06245e-005 4.65856e-005 -8.18504e-006
941
root  11.4333 40.4922 -2.67687 -87.3777 -82.6688 93.0597
RightUpLeg  3.66153 -11.904 -12.668
RightLeg  4.65524 -3.67074 3.7103
RightFoot  -13.7867 0.0439995 6.42129
RightToes  0.00048216 0.542163 -0.142577
Spine  5.62682 0.817442 0.547854
Spine1  6.28192 2.15259 -4.84708
HEad  -0.0567762 0.607551 -2.59529
LeftShoulder1  8.3248 -12.131 -46.4443
LeftArm  -13.7505 21.4911 -25.7268
LeftForeArm  29.9054 -28.8019 -4.60165
LeftHand  -0.25398 0.0180481 5.50724
RightShoulder  4.97797 8.31894 36.1204
RightArm  -3.95091 -21.0778 37.9188
RightForeArm  0.6952 15.7314 6.27603
RightHand  -1.05522 1.43784 -18.0016
LeftUpLeg  -7.74048 0.531919 -5.38056
LeftLeg  3.05625 19.7635 -4.69809
LeftFoot  -3.57851 -0.0545621 1.12629
LeftToes  1.06245e-005 4.65856e-005 -8.18504e-006
942
root  11.2695 40.4172 -2.48109 -86.0748 -82.7654 91.0867
RightUpLeg  4.38184 -12.0329 -13.1028
RightLeg  5.39171 -3.37204 3.56788
RightFoot  -14.4374 0.101474 7.37829
RightToes  0.00048216 0.542163 -0.142577
Spine  5.71413 1.02873 0.563684
Spine1  6.59073 2.4199 -4.96578
HEad  0.510629 0.0309895 -2.41868
LeftShoulder1  8.27163 -12.0265 -46.4578
LeftArm  -14.6119 21.2411 -25.7886
LeftForeArm  29.5154 -30.8334 -5.0891
LeftHand  -0.25398 0.0180481 5.50724
RightShoulder  4.98618 8.3318 36.1435
RightArm  0.145702 -21.3425 38.0629
RightForeArm  1.58112 17.2797 6.01793
RightHand  -0.915432 0.998868 -16.6993
LeftUpLeg  -7.76457 1.02531 -5.6948
LeftLeg  5.18515 19.2357 -3.9413
LeftFoot  -4.7145 -0.0515488 1.37926
LeftToes  1.06245e-005 4.65856e-005 -8.18504e-006
943
root  11.0468 40.3257 -2.24437 -86.0841 -82.8217 90.2052
RightUpLeg  4.79188 -12.6468 -13.6274
RightLeg  7.32281 -2.90727 3.06018
RightFoot  -15.0329 0.148106 7.76906
RightToes  0.00048216 0.542163 -0.142577
Spine  5.86524 1.08675 0.227829
Spine1  7.00266 2.46069 -4.86639
HEad  1.09143 -0.0823706 -2.15001
LeftShoulder1  8.25251 -11.9704 -46.5199
LeftArm  -15.1843 21.3351 -25.8264
LeftForeArm  28.7514 -31.8252 -5.36781
LeftHand  -0.25398 0.0180481 5.50724
RightShoulder  4.96265 8.31404 36.0109
RightArm  4.2702 -20.9444 38.1437
RightForeArm  2.73012 18.9273 5.56812
RightHand  -0.825607 0.616276 -16.0075
LeftUpLeg  -7.39182 1.88596 -6.2574
LeftLeg  7.30598 18.1648 -2.92093
LeftFoot  -6.17862 -0.0230724 1.33038
LeftToes  1.06245e-005 4.65856e-005 -8.18504e-006
944
root  10.7746 40.2168 -1.97588 -87.4928 -82.837 90.6385
RightUpLeg  4.62174 -14.1935 -14.0889
RightLeg  10.5842 -1.39738 1.90438
RightFoot  -15.6984 0.191002 7.78804
RightToes  0.00048216 0.542163 -0.142577
Spine  6.0515 1.09152 -0.367851
Spine1  7.34758 2.40232 -4.69894
HEad  1.69684 -0.029882 -1.76301
LeftShoulder1  8.29769 -12.0282 -46.6028
LeftArm  -15.1293 21.6453 -25.6721
LeftForeArm  28.4389 -31.9651 -5.41945
LeftHand  -0.25398 0.0180481 5.50724
RightShoulder  4.92131 8.27092 35.8181
RightArm  7.39124 -20.309 38.1669
RightForeArm  2.12547 20.5923 5.16748
RightHand  -0.800308 0.360006 -16.1764
LeftUpLeg  -6.56166 2.63543 -6.83921
LeftLeg  8.93639 17.3563 -2.09756
LeftFoot  -7.78476 0.0117824 1.13184
LeftToes  1.06245e-005 4.65856e-005 -8.18504e-006
945
root  10.4856 40.0992 -1.69451 -92.3768 -82.8812 94.5912
RightUpLeg  3.24386 -14.6078 -14.1454
RightLeg  15.5462 0.0443236 0.307586
RightFoot  -15.9755 0.25764 9.03143
RightToes  0.00048216 0.542163 -0.142577
Spine  6.36416 1.18833 -1.13109
Spine1  7.52527 2.39737 -4.55447
HEad  2.19789 0.170065 -1.38173
LeftShoulder1  8.35644 -12.1004 -46.7189
LeftArm  -14.5267 21.9096 -25.331
LeftForeArm  28.8708 -31.3539 -5.24904
LeftHand  -0.25398 0.0180481 5.50724
RightShoulder  4.89692 8.23439 35.742
RightArm  8.67609 -19.4922 38.0172
RightForeArm  0.624016 22.0971 4.97645
RightHand  -0.83669 0.468672 -16.6039
LeftUpLeg  -5.5445 3.17608 -7.12002
LeftLeg  10.1517 17.2724 -1.76566
LeftFoot  -9.37714 0.0392653 1.00119
LeftToes  1.06245e-005 4.65856e-005 -8.18504e-006
